<svg xmlns="http://www.w3.org/2000/svg" xmlns:xlink="http://www.w3.org/1999/xlink" version="1.1" width="1000" height="1000" viewBox="0 0 1000 1000" xml:space="preserve">
<desc>Created with Fabric.js 3.5.0</desc>
<defs>
</defs>
<rect x="0" y="0" width="100%" height="100%" fill="#ffffff"/>
<g transform="matrix(4.2768 0 0 4.2768 493.8021 499.9956)" id="903439">
<g style="" vector-effect="non-scaling-stroke">
		<g transform="matrix(1 0 0 1 18.01 29.71)" id="Layer_2">
<polygon style="stroke: none; stroke-width: 1; stroke-dasharray: none; stroke-linecap: butt; stroke-dashoffset: 0; stroke-linejoin: miter; stroke-miterlimit: 4; is-custom-font: none; font-file-url: none; fill: rgb(238,51,36); fill-rule: nonzero; opacity: 1;" points="54.72,22.69 54.72,36.28 30.2,60.79 -30.63,60.79 -54.72,36.7 -54.72,-36.86 -30.8,-60.79 30.52,-60.79 54.72,-36.61 54.72,-22.44 33.27,-22.44 33.27,-27.23 21.11,-39.39 -22.01,-39.39 -33.45,-27.94 -33.45,27.67 -21.57,39.55 20.76,39.55 33.3,27 33.3,22.69 54.72,22.69 "/>
</g>
		<g transform="matrix(1 0 0 1 -18.055 -29.725)" id="Layer_2">
<polygon style="stroke: none; stroke-width: 1; stroke-dasharray: none; stroke-linecap: butt; stroke-dashoffset: 0; stroke-linejoin: miter; stroke-miterlimit: 4; is-custom-font: none; font-file-url: none; fill: rgb(238,51,36); fill-rule: nonzero; opacity: 1;" points="62.255,-39.225 62.255,-15.345 26.055,-15.345 26.055,-24.725 18.585,-32.195 -18.655,-32.195 -26.105,-24.745 -26.105,29.485 -29.625,25.975 -29.625,-26.065 -19.845,-35.845 19.675,-35.845 29.785,-25.735 29.785,-19.305 59.055,-19.305 59.055,-37.365 31.795,-64.635 -32.665,-64.635 -58.575,-38.725 -58.575,37.355 -58.585,37.675 -31.765,64.495 -26.025,64.495 -25.965,68.145 -33.305,68.145 -62.255,39.195 -62.255,-39.535 -33.645,-68.145 33.335,-68.145 62.255,-39.225 "/>
</g>
		<g transform="matrix(1 0 0 1 -18.455 -29.95)" id="Layer_2">
<polygon style="stroke: none; stroke-width: 1; stroke-dasharray: none; stroke-linecap: butt; stroke-dashoffset: 0; stroke-linejoin: miter; stroke-miterlimit: 4; is-custom-font: none; font-file-url: none; fill: rgb(238,51,36); fill-rule: nonzero; opacity: 1;" points="54.865,-36.59 54.865,-22.86 33.665,-22.86 33.665,-27.14 21.315,-39.49 -21.605,-39.49 -33.245,-27.86 -33.245,27.18 -25.735,34.69 -25.885,60.88 -30.355,60.88 -54.865,36.37 -54.865,-36.59 -30.575,-60.88 30.665,-60.78 54.865,-36.59 "/>
</g>
		<g transform="matrix(1 0 0 1 -44.37 18.645)" id="Layer_2">
<rect style="stroke: none; stroke-width: 1; stroke-dasharray: none; stroke-linecap: butt; stroke-dashoffset: 0; stroke-linejoin: miter; stroke-miterlimit: 4; is-custom-font: none; font-file-url: none; fill: rgb(238,51,36); fill-rule: nonzero; opacity: 1;" x="-2.01" y="-12.285" rx="0" ry="0" width="4.02" height="24.57"/>
</g>
		<g transform="matrix(1 0 0 1 18.03 29.685)" id="Layer_1">
<path style="stroke: none; stroke-width: 1; stroke-dasharray: none; stroke-linecap: butt; stroke-dashoffset: 0; stroke-linejoin: miter; stroke-miterlimit: 4; is-custom-font: none; font-file-url: none; fill: rgb(238,51,36); fill-rule: nonzero; opacity: 1;" transform=" translate(-118.03, -129.605)" d="M 180.31 144.81 v 24 l -28.95 28.95 h -67 L 55.75 169.13 V 90 L 84.34 61.45 l 67.26 0.14 L 180.31 90.3 v 23.87 H 144.47 v -4.54 H 144 L 115.3 138.34 H 91.73 V 154 l 7.87 7.87 h 36.47 l 8.13 -8.14 v -8.93 Z m -3.63 22.32 V 148.68 H 148 v 6.73 l -9.8 9.79 H 97.67 l -9.57 -9.56 V 103.25 l 9.5 -9.49 h 40.75 l 9.74 9.73 v 7.21 h 28.59 V 91.81 L 150 65.13 H 86 L 59.62 91.49 l 0 76.07 l 26.54 26.53 h 63.6 Z M 141 107.34 v -5.47 l -3.47 -3.47 h -0.94 v 7.93 L 112 130.85 H 91.87 v 3.88 h 21.72 Z m -37.65 2.2 l 12.1 -12.09 h -5.17 L 102 105.68 H 91.87 v 3.86 Z m -2.93 -7.21 l 4.88 -4.88 H 99 l -4.66 4.88 Z" stroke-linecap="round"/>
</g>
</g>
</g>
</svg>